#define 20953_10571300a47cf66c084e97d9893de211837488d012fa0f0f289b29656e1bf59a_width 24
#define 20953_10571300a47cf66c084e97d9893de211837488d012fa0f0f289b29656e1bf59a_height 32
static char 20953_10571300a47cf66c084e97d9893de211837488d012fa0f0f289b29656e1bf59a_bits[] = {
  0x00, 0x00, 0x00, 0x00, 0x00, 0x00, 0x00, 0x00, 0x00, 0x00, 0xF0, 0x07, 
  0x00, 0x10, 0x04, 0x00, 0x08, 0x02, 0x00, 0x08, 0x02, 0x00, 0x04, 0x01, 
  0x00, 0x04, 0x01, 0x00, 0x82, 0x00, 0x00, 0x82, 0x00, 0x00, 0x81, 0x3F, 
  0x00, 0x01, 0x10, 0x80, 0x00, 0x10, 0x80, 0x00, 0x08, 0x80, 0x3F, 0x08, 
  0x00, 0x20, 0x04, 0x00, 0x20, 0x04, 0x00, 0x20, 0x02, 0x00, 0x10, 0x02, 
  0x00, 0x10, 0x01, 0x00, 0x10, 0x01, 0x00, 0x88, 0x00, 0x00, 0x88, 0x00, 
  0x00, 0x48, 0x00, 0x00, 0x44, 0x00, 0x00, 0x24, 0x00, 0x00, 0x24, 0x00, 
  0x00, 0x14, 0x00, 0x00, 0x14, 0x00, 0x00, 0x0C, 0x00, 0x00, 0x00, 0x00, 
  };
