#define 16281_47c54c88e72a8548f7d6ed1cc6952157c87e6aefbd871b9a81d324015e38f28a_width 24
#define 16281_47c54c88e72a8548f7d6ed1cc6952157c87e6aefbd871b9a81d324015e38f28a_height 32
static char 16281_47c54c88e72a8548f7d6ed1cc6952157c87e6aefbd871b9a81d324015e38f28a_bits[] = {
  0x00, 0x00, 0x00, 0x00, 0x00, 0x00, 0x00, 0x00, 0x00, 0x00, 0xF0, 0x07, 
  0x00, 0x10, 0x04, 0x00, 0x08, 0x02, 0x00, 0x08, 0x02, 0x00, 0x04, 0x01, 
  0x00, 0x04, 0x01, 0x00, 0x82, 0x00, 0x00, 0x82, 0x00, 0x00, 0x81, 0x3F, 
  0x00, 0x01, 0x10, 0x80, 0x00, 0x10, 0x80, 0x00, 0x08, 0x80, 0xFF, 0x0F, 
  0x00, 0xE0, 0x07, 0x00, 0xE0, 0x07, 0x00, 0xE0, 0x03, 0x00, 0xF0, 0x03, 
  0x00, 0xF0, 0x01, 0x00, 0xF0, 0x01, 0x00, 0xF8, 0x00, 0x00, 0xF8, 0x00, 
  0x00, 0x78, 0x00, 0x00, 0x7C, 0x00, 0x00, 0x3C, 0x00, 0x00, 0x3C, 0x00, 
  0x00, 0x1C, 0x00, 0x00, 0x1C, 0x00, 0x00, 0x0C, 0x00, 0x00, 0x00, 0x00, 
  };
