#define 21481_42c7c2471f0e1a8cde390edbab533757ef399e048002b04f217c56dffdf15365_width 65
#define 21481_42c7c2471f0e1a8cde390edbab533757ef399e048002b04f217c56dffdf15365_height 65
static char 21481_42c7c2471f0e1a8cde390edbab533757ef399e048002b04f217c56dffdf15365_bits[] = {
  0x00, 0x00, 0x00, 0x00, 0x00, 0x00, 0x00, 0x00, 0x00, 0x00, 0x00, 0x00, 
  0x00, 0x00, 0x00, 0x00, 0x00, 0x00, 0x00, 0x00, 0x00, 0x00, 0x00, 0x00, 
  0x00, 0x00, 0x00, 0x00, 0x00, 0x00, 0x00, 0x00, 0x00, 0x00, 0x00, 0x00, 
  0x00, 0x00, 0x00, 0x00, 0x00, 0x00, 0x00, 0x00, 0x00, 0x00, 0x00, 0x00, 
  0x00, 0x00, 0x00, 0x00, 0x00, 0x00, 0x00, 0x00, 0x00, 0x00, 0x00, 0x00, 
  0x00, 0x00, 0x00, 0x00, 0x00, 0x00, 0x00, 0x00, 0x00, 0x00, 0x00, 0x00, 
  0x00, 0x00, 0x00, 0x00, 0x00, 0x00, 0x00, 0x00, 0x00, 0x00, 0x00, 0x00, 
  0x00, 0x00, 0x00, 0x00, 0x00, 0x00, 0x00, 0x00, 0x00, 0x00, 0x00, 0x00, 
  0x00, 0x00, 0x00, 0x00, 0x00, 0x00, 0xF8, 0x3F, 0x00, 0x00, 0x00, 0x00, 
  0x00, 0x00, 0x00, 0x0F, 0xF0, 0x01, 0x00, 0x00, 0x00, 0x00, 0x00, 0xC0, 
  0x01, 0x00, 0x07, 0x00, 0x00, 0x00, 0x00, 0x00, 0x70, 0x00, 0x00, 0x1C, 
  0x00, 0x00, 0x00, 0x00, 0x00, 0x18, 0xF0, 0x03, 0x30, 0x00, 0x00, 0x00, 
  0x00, 0x00, 0x0C, 0x28, 0x0E, 0x60, 0x00, 0x00, 0x00, 0x00, 0x00, 0x02, 
  0x04, 0x10, 0xC0, 0x00, 0x00, 0x00, 0x00, 0x00, 0x03, 0x0C, 0x30, 0x00, 
  0x01, 0x00, 0x00, 0x00, 0x80, 0xC1, 0x0C, 0x20, 0x00, 0x03, 0x00, 0x00, 
  0x00, 0xC0, 0x40, 0x08, 0x20, 0x00, 0x02, 0x00, 0x00, 0x00, 0x40, 0x20, 
  0x18, 0x20, 0x10, 0x04, 0x00, 0x00, 0x00, 0x60, 0x10, 0x11, 0x20, 0x20, 
  0x0C, 0x00, 0x00, 0x00, 0x20, 0xC8, 0x30, 0x20, 0x40, 0x08, 0x00, 0x00, 
  0x00, 0x30, 0x04, 0x20, 0x30, 0x40, 0x18, 0x00, 0x00, 0x00, 0x10, 0x02, 
  0x60, 0x30, 0x80, 0x10, 0x00, 0x00, 0x00, 0x10, 0x02, 0x60, 0x10, 0x80, 
  0x10, 0x00, 0x00, 0x00, 0x18, 0x00, 0xC0, 0x17, 0x90, 0x30, 0x00, 0x00, 
  0x00, 0x18, 0x00, 0xE0, 0x0E, 0x10, 0x21, 0x00, 0x00, 0x00, 0x08, 0x00, 
  0x30, 0x18, 0x20, 0x21, 0x00, 0x00, 0x00, 0x08, 0x00, 0x08, 0x10, 0x20, 
  0x21, 0x00, 0x00, 0x00, 0x08, 0x00, 0x0F, 0x30, 0x00, 0x20, 0x00, 0x00, 
  0x00, 0x08, 0xE0, 0x08, 0x30, 0x00, 0x20, 0x00, 0x00, 0x00, 0x08, 0x38, 
  0x08, 0xE0, 0x67, 0x20, 0x00, 0x00, 0x00, 0x08, 0x0C, 0x18, 0x30, 0xBC, 
  0x21, 0x00, 0x00, 0x00, 0x08, 0x06, 0x30, 0x3C, 0x00, 0x21, 0x00, 0x00, 
  0x00, 0x18, 0x02, 0xF0, 0x0F, 0x00, 0x21, 0x00, 0x00, 0x00, 0x18, 0x03, 
  0x78, 0x0B, 0x00, 0x31, 0x00, 0x00, 0x00, 0x10, 0x02, 0x08, 0x1C, 0x80, 
  0x11, 0x00, 0x00, 0x00, 0x10, 0x02, 0x0C, 0x10, 0x80, 0x11, 0x00, 0x00, 
  0x00, 0x30, 0x06, 0x06, 0x30, 0x80, 0x18, 0x00, 0x00, 0x00, 0x20, 0x06, 
  0x03, 0x60, 0xE0, 0x08, 0x00, 0x00, 0x00, 0x60, 0x0C, 0x03, 0xC0, 0x21, 
  0x04, 0x00, 0x00, 0x00, 0x40, 0x98, 0x00, 0x00, 0x3F, 0x06, 0x00, 0x00, 
  0x00, 0xC0, 0xB0, 0x19, 0x00, 0x00, 0x06, 0x00, 0x00, 0x00, 0x80, 0x61, 
  0xF0, 0x00, 0x00, 0x03, 0x00, 0x00, 0x00, 0x00, 0x03, 0x00, 0x00, 0x00, 
  0x01, 0x00, 0x00, 0x00, 0x00, 0x06, 0x1E, 0x00, 0xC0, 0x00, 0x00, 0x00, 
  0x00, 0x00, 0x0C, 0xF8, 0x0F, 0x60, 0x00, 0x00, 0x00, 0x00, 0x00, 0x38, 
  0x00, 0x00, 0x38, 0x00, 0x00, 0x00, 0x00, 0x00, 0x60, 0x00, 0x00, 0x1C, 
  0x00, 0x00, 0x00, 0x00, 0x00, 0xC0, 0x01, 0x80, 0x03, 0x00, 0x00, 0x00, 
  0x00, 0x00, 0x00, 0x2F, 0xE8, 0x01, 0x00, 0x00, 0x00, 0x00, 0x00, 0x00, 
  0xF8, 0x3F, 0x00, 0x00, 0x00, 0x00, 0x00, 0x00, 0x00, 0x00, 0x00, 0x00, 
  0x00, 0x00, 0x00, 0x00, 0x00, 0x00, 0x00, 0x00, 0x00, 0x00, 0x00, 0x00, 
  0x00, 0x00, 0x00, 0x00, 0x00, 0x00, 0x00, 0x00, 0x00, 0x00, 0x00, 0x00, 
  0x00, 0x00, 0x00, 0x00, 0x00, 0x00, 0x00, 0x00, 0x00, 0x00, 0x00, 0x00, 
  0x00, 0x00, 0x00, 0x00, 0x00, 0x00, 0x00, 0x00, 0x00, 0x00, 0x00, 0x00, 
  0x00, 0x00, 0x00, 0x00, 0x00, 0x00, 0x00, 0x00, 0x00, 0x00, 0x00, 0x00, 
  0x00, 0x00, 0x00, 0x00, 0x00, 0x00, 0x00, 0x00, 0x00, 0x00, 0x00, 0x00, 
  0x00, 0x00, 0x00, 0x00, 0x00, 0x00, 0x00, 0x00, 0x00, 0x00, 0x00, 0x00, 
  0x00, 0x00, 0x00, 0x00, 0x00, 0x00, 0x00, 0x00, 0x00, };
