#define 7806_12d38aa0cfdc2135b2c1016676785f4473bd780095d264cb0be8b8c5842dafc9_width 24
#define 7806_12d38aa0cfdc2135b2c1016676785f4473bd780095d264cb0be8b8c5842dafc9_height 32
static char 7806_12d38aa0cfdc2135b2c1016676785f4473bd780095d264cb0be8b8c5842dafc9_bits[] = {
  0x00, 0x00, 0x00, 0x00, 0x00, 0x00, 0x00, 0x00, 0x00, 0x00, 0x7E, 0x00, 
  0x00, 0x81, 0x00, 0x80, 0x00, 0x01, 0x80, 0x00, 0x01, 0x80, 0xE0, 0x01, 
  0x80, 0x00, 0x01, 0x80, 0x00, 0x01, 0x80, 0xE0, 0x01, 0x80, 0x00, 0x01, 
  0x80, 0x00, 0x01, 0x80, 0xE0, 0x01, 0x80, 0x00, 0x01, 0x80, 0x00, 0x01, 
  0x80, 0xE0, 0x01, 0x80, 0x00, 0x01, 0x80, 0x00, 0x01, 0x80, 0xE0, 0x01, 
  0x80, 0x00, 0x01, 0x40, 0x00, 0x02, 0x20, 0xE0, 0x07, 0x20, 0x00, 0x04, 
  0xE0, 0xFF, 0x07, 0xE0, 0xFF, 0x07, 0xE0, 0xFF, 0x07, 0xC0, 0xFF, 0x03, 
  0x80, 0xFF, 0x01, 0x00, 0xFF, 0x00, 0x00, 0x3C, 0x00, 0x00, 0x00, 0x00, 
  };
